<mxfile host="app.diagrams.net" agent="Mozilla/5.0 (Windows NT 10.0; Win64; x64; rv:133.0) Gecko/20100101 Firefox/133.0" version="25.0.3">
  <diagram name="Page-1" id="9361dd3d-8414-5efd-6122-117bd74ce7a7">
    <mxGraphModel dx="1820" dy="1132" grid="1" gridSize="10" guides="1" tooltips="1" connect="1" arrows="1" fold="1" page="0" pageScale="1.5" pageWidth="826" pageHeight="1169" background="none" math="0" shadow="0">
      <root>
        <mxCell id="0" />
        <mxCell id="1" parent="0" />
        <mxCell id="69" value="" style="fillColor=#DEE8FF;strokeColor=none" parent="1" vertex="1">
          <mxGeometry x="-150" y="-40" width="1941" height="1090" as="geometry" />
        </mxCell>
        <mxCell id="2" value="" style="fillColor=#CC4125;strokeColor=#660000" parent="1" vertex="1">
          <mxGeometry x="200" y="120" width="10" height="900" as="geometry" />
        </mxCell>
        <mxCell id="4" value="EditableWidgetContianer" style="shadow=1;fillColor=#A2C4C9;strokeColor=none" parent="1" vertex="1">
          <mxGeometry x="130" y="29" width="157.5" height="50" as="geometry" />
        </mxCell>
        <mxCell id="6" value="" style="fillColor=#CC4125;strokeColor=#660000" parent="1" vertex="1">
          <mxGeometry x="442.5" y="150" width="10" height="870" as="geometry" />
        </mxCell>
        <mxCell id="7" value="WidgetDataBaseHelper" style="shadow=1;fillColor=#A2C4C9;strokeColor=none" parent="1" vertex="1">
          <mxGeometry x="360" y="26" width="170" height="50" as="geometry" />
        </mxCell>
        <mxCell id="8" value="" style="edgeStyle=none;endArrow=none;dashed=1" parent="1" source="7" target="6" edge="1">
          <mxGeometry x="272.3350694444445" y="165" width="100" height="100" as="geometry">
            <mxPoint x="347.2588734567901" y="110" as="sourcePoint" />
            <mxPoint x="347.5761959876544" y="165" as="targetPoint" />
          </mxGeometry>
        </mxCell>
        <mxCell id="9" value="addDataChangedObserver(pageType, &#xa;observer)" style="edgeStyle=none;verticalLabelPosition=top;verticalAlign=bottom;" parent="1" edge="1">
          <mxGeometry x="220" y="92" width="100" height="100" as="geometry">
            <mxPoint x="211" y="186.5" as="sourcePoint" />
            <mxPoint x="447" y="187" as="targetPoint" />
          </mxGeometry>
        </mxCell>
        <mxCell id="33" value="" style="edgeStyle=elbowEdgeStyle;elbow=horizontal;endArrow=none;dashed=1" parent="1" source="4" target="2" edge="1">
          <mxGeometry x="230.00000000000003" y="310" width="100" height="100" as="geometry">
            <mxPoint x="230.00000000000003" y="410" as="sourcePoint" />
            <mxPoint x="330" y="310" as="targetPoint" />
          </mxGeometry>
        </mxCell>
        <mxCell id="71" value="同步container操作" style="rounded=1;fontStyle=1;fillColor=#FFD966;strokeColor=none" parent="1" vertex="1">
          <mxGeometry x="-320" y="-10" width="150" height="30" as="geometry" />
        </mxCell>
        <mxCell id="1cmuNa6uKXrp0ozcfd2a-91" value="" style="html=1;points=[[0,0,0,0,5],[0,1,0,0,-5],[1,0,0,0,5],[1,1,0,0,-5]];perimeter=orthogonalPerimeter;outlineConnect=0;targetShapes=umlLifeline;portConstraint=eastwest;newEdgeStyle={&quot;curved&quot;:0,&quot;rounded&quot;:0};" vertex="1" parent="1">
          <mxGeometry x="210" y="205" width="10" height="40" as="geometry" />
        </mxCell>
        <mxCell id="1cmuNa6uKXrp0ozcfd2a-92" value="编辑widget" style="html=1;align=left;spacingLeft=2;endArrow=block;rounded=0;edgeStyle=orthogonalEdgeStyle;curved=0;rounded=0;" edge="1" parent="1">
          <mxGeometry relative="1" as="geometry">
            <mxPoint x="212" y="194" as="sourcePoint" />
            <Array as="points">
              <mxPoint x="242" y="224" />
            </Array>
            <mxPoint x="214" y="224" as="targetPoint" />
          </mxGeometry>
        </mxCell>
        <mxCell id="1cmuNa6uKXrp0ozcfd2a-93" value="save/delete(int pageType, boolean notify=true)" style="edgeStyle=none;verticalLabelPosition=top;verticalAlign=bottom;" edge="1" parent="1">
          <mxGeometry x="220" y="92" width="100" height="100" as="geometry">
            <mxPoint x="210" y="265.5" as="sourcePoint" />
            <mxPoint x="446" y="266" as="targetPoint" />
          </mxGeometry>
        </mxCell>
        <mxCell id="1cmuNa6uKXrp0ozcfd2a-94" value="" style="html=1;points=[[0,0,0,0,5],[0,1,0,0,-5],[1,0,0,0,5],[1,1,0,0,-5]];perimeter=orthogonalPerimeter;outlineConnect=0;targetShapes=umlLifeline;portConstraint=eastwest;newEdgeStyle={&quot;curved&quot;:0,&quot;rounded&quot;:0};" vertex="1" parent="1">
          <mxGeometry x="448" y="299" width="10" height="40" as="geometry" />
        </mxCell>
        <mxCell id="1cmuNa6uKXrp0ozcfd2a-95" value="同时更新数据库中全屏/非全屏数据" style="html=1;align=left;spacingLeft=2;endArrow=block;rounded=0;edgeStyle=orthogonalEdgeStyle;curved=0;rounded=0;" edge="1" target="1cmuNa6uKXrp0ozcfd2a-94" parent="1">
          <mxGeometry relative="1" as="geometry">
            <mxPoint x="453" y="279" as="sourcePoint" />
            <Array as="points">
              <mxPoint x="483" y="309" />
            </Array>
          </mxGeometry>
        </mxCell>
        <mxCell id="1cmuNa6uKXrp0ozcfd2a-96" value="" style="html=1;points=[[0,0,0,0,5],[0,1,0,0,-5],[1,0,0,0,5],[1,1,0,0,-5]];perimeter=orthogonalPerimeter;outlineConnect=0;targetShapes=umlLifeline;portConstraint=eastwest;newEdgeStyle={&quot;curved&quot;:0,&quot;rounded&quot;:0};" vertex="1" parent="1">
          <mxGeometry x="448" y="369" width="10" height="40" as="geometry" />
        </mxCell>
        <mxCell id="1cmuNa6uKXrp0ozcfd2a-97" value="notifyObservers()" style="html=1;align=left;spacingLeft=2;endArrow=block;rounded=0;edgeStyle=orthogonalEdgeStyle;curved=0;rounded=0;" edge="1" target="1cmuNa6uKXrp0ozcfd2a-96" parent="1">
          <mxGeometry relative="1" as="geometry">
            <mxPoint x="453" y="349" as="sourcePoint" />
            <Array as="points">
              <mxPoint x="483" y="379" />
            </Array>
          </mxGeometry>
        </mxCell>
        <mxCell id="1cmuNa6uKXrp0ozcfd2a-104" value="&lt;div&gt;onDataChanged(int pageType)&lt;/div&gt;" style="html=1;verticalAlign=bottom;endArrow=open;dashed=1;endSize=8;curved=0;rounded=0;exitX=0.248;exitY=0.538;exitDx=0;exitDy=0;exitPerimeter=0;entryX=0.101;entryY=0.538;entryDx=0;entryDy=0;entryPerimeter=0;" edge="1" parent="1">
          <mxGeometry x="-0.0034" relative="1" as="geometry">
            <mxPoint x="440.3600000000001" y="439.24" as="sourcePoint" />
            <mxPoint x="209.56999999999994" y="439.24" as="targetPoint" />
            <mxPoint as="offset" />
          </mxGeometry>
        </mxCell>
        <mxCell id="1cmuNa6uKXrp0ozcfd2a-111" value="observers个数=1" style="shape=umlFrame;whiteSpace=wrap;html=1;pointerEvents=0;width=110;height=30;" vertex="1" parent="1">
          <mxGeometry x="210" y="490" width="300" height="190" as="geometry" />
        </mxCell>
        <mxCell id="1cmuNa6uKXrp0ozcfd2a-112" value="" style="html=1;points=[[0,0,0,0,5],[0,1,0,0,-5],[1,0,0,0,5],[1,1,0,0,-5]];perimeter=orthogonalPerimeter;outlineConnect=0;targetShapes=umlLifeline;portConstraint=eastwest;newEdgeStyle={&quot;curved&quot;:0,&quot;rounded&quot;:0};" vertex="1" parent="1">
          <mxGeometry x="205" y="560" width="10" height="40" as="geometry" />
        </mxCell>
        <mxCell id="1cmuNa6uKXrp0ozcfd2a-113" value="计算半屏/全屏转换" style="html=1;align=left;spacingLeft=2;endArrow=block;rounded=0;edgeStyle=orthogonalEdgeStyle;curved=0;rounded=0;" edge="1" target="1cmuNa6uKXrp0ozcfd2a-112" parent="1">
          <mxGeometry relative="1" as="geometry">
            <mxPoint x="210" y="540" as="sourcePoint" />
            <Array as="points">
              <mxPoint x="240" y="570" />
            </Array>
          </mxGeometry>
        </mxCell>
        <mxCell id="1cmuNa6uKXrp0ozcfd2a-114" value="save/delete(int pageType, boolean notify=false)" style="edgeStyle=none;verticalLabelPosition=top;verticalAlign=bottom;" edge="1" parent="1">
          <mxGeometry x="220" y="92" width="100" height="100" as="geometry">
            <mxPoint x="212" y="630" as="sourcePoint" />
            <mxPoint x="448" y="630.5" as="targetPoint" />
          </mxGeometry>
        </mxCell>
        <mxCell id="1cmuNa6uKXrp0ozcfd2a-116" value="observers个数&amp;gt;1" style="shape=umlFrame;whiteSpace=wrap;html=1;pointerEvents=0;width=110;height=30;" vertex="1" parent="1">
          <mxGeometry x="210" y="730" width="300" height="220" as="geometry" />
        </mxCell>
        <mxCell id="1cmuNa6uKXrp0ozcfd2a-120" value="" style="html=1;points=[[0,0,0,0,5],[0,1,0,0,-5],[1,0,0,0,5],[1,1,0,0,-5]];perimeter=orthogonalPerimeter;outlineConnect=0;targetShapes=umlLifeline;portConstraint=eastwest;newEdgeStyle={&quot;curved&quot;:0,&quot;rounded&quot;:0};" vertex="1" parent="1">
          <mxGeometry x="438" y="800" width="10" height="40" as="geometry" />
        </mxCell>
        <mxCell id="1cmuNa6uKXrp0ozcfd2a-121" value="getObserverMap()" style="html=1;verticalAlign=bottom;endArrow=block;curved=0;rounded=0;entryX=0;entryY=0;entryDx=0;entryDy=5;exitX=0;exitY=0.339;exitDx=0;exitDy=0;exitPerimeter=0;" edge="1" target="1cmuNa6uKXrp0ozcfd2a-120" parent="1" source="1cmuNa6uKXrp0ozcfd2a-116">
          <mxGeometry relative="1" as="geometry">
            <mxPoint x="210" y="805" as="sourcePoint" />
          </mxGeometry>
        </mxCell>
        <mxCell id="1cmuNa6uKXrp0ozcfd2a-122" value="return" style="html=1;verticalAlign=bottom;endArrow=open;dashed=1;endSize=8;curved=0;rounded=0;exitX=0;exitY=1;exitDx=0;exitDy=-5;entryX=0.003;entryY=0.47;entryDx=0;entryDy=0;entryPerimeter=0;exitPerimeter=0;" edge="1" parent="1">
          <mxGeometry relative="1" as="geometry">
            <mxPoint x="209.96000000000004" y="838.0999999999999" as="targetPoint" />
            <mxPoint x="437" y="835" as="sourcePoint" />
          </mxGeometry>
        </mxCell>
        <mxCell id="1cmuNa6uKXrp0ozcfd2a-125" value="" style="html=1;points=[[0,0,0,0,5],[0,1,0,0,-5],[1,0,0,0,5],[1,1,0,0,-5]];perimeter=orthogonalPerimeter;outlineConnect=0;targetShapes=umlLifeline;portConstraint=eastwest;newEdgeStyle={&quot;curved&quot;:0,&quot;rounded&quot;:0};" vertex="1" parent="1">
          <mxGeometry x="205" y="890" width="10" height="40" as="geometry" />
        </mxCell>
        <mxCell id="1cmuNa6uKXrp0ozcfd2a-126" value="&lt;div&gt;syncWidgetChanged()&lt;/div&gt;" style="html=1;align=left;spacingLeft=2;endArrow=block;rounded=0;edgeStyle=orthogonalEdgeStyle;curved=0;rounded=0;" edge="1" target="1cmuNa6uKXrp0ozcfd2a-125" parent="1">
          <mxGeometry relative="1" as="geometry">
            <mxPoint x="210" y="870" as="sourcePoint" />
            <Array as="points">
              <mxPoint x="240" y="900" />
            </Array>
          </mxGeometry>
        </mxCell>
        <mxCell id="1cmuNa6uKXrp0ozcfd2a-127" value="个数为1，直接更新另外一种尺寸页面的数据，通过pageType判断" style="text;html=1;align=center;verticalAlign=middle;whiteSpace=wrap;rounded=0;" vertex="1" parent="1">
          <mxGeometry x="530" y="490" width="240" height="30" as="geometry" />
        </mxCell>
        <mxCell id="1cmuNa6uKXrp0ozcfd2a-128" value="" style="endArrow=classic;html=1;rounded=0;exitX=1.01;exitY=0.335;exitDx=0;exitDy=0;exitPerimeter=0;" edge="1" parent="1" source="1cmuNa6uKXrp0ozcfd2a-111">
          <mxGeometry width="50" height="50" relative="1" as="geometry">
            <mxPoint x="500" y="560" as="sourcePoint" />
            <mxPoint x="540" y="520" as="targetPoint" />
          </mxGeometry>
        </mxCell>
        <mxCell id="1cmuNa6uKXrp0ozcfd2a-130" value="Activity" style="shadow=1;fillColor=#A2C4C9;strokeColor=none" vertex="1" parent="1">
          <mxGeometry x="-100" y="30" width="170" height="50" as="geometry" />
        </mxCell>
        <mxCell id="1cmuNa6uKXrp0ozcfd2a-134" value="" style="edgeStyle=elbowEdgeStyle;elbow=horizontal;endArrow=none;dashed=1;exitX=0.5;exitY=1;exitDx=0;exitDy=0;" edge="1" parent="1">
          <mxGeometry x="230.00000000000003" y="310" width="100" height="100" as="geometry">
            <mxPoint x="-15" y="204" as="sourcePoint" />
            <mxPoint x="-15" y="83" as="targetPoint" />
          </mxGeometry>
        </mxCell>
        <mxCell id="1cmuNa6uKXrp0ozcfd2a-135" value="" style="fillColor=#CC4125;strokeColor=#660000" vertex="1" parent="1">
          <mxGeometry x="-20" y="110" width="10" height="910" as="geometry" />
        </mxCell>
        <mxCell id="1cmuNa6uKXrp0ozcfd2a-136" value="setPageType()" style="edgeStyle=none;verticalLabelPosition=top;verticalAlign=bottom;labelPosition=left;align=right;exitX=0.6;exitY=0.039;exitDx=0;exitDy=0;exitPerimeter=0;" edge="1" parent="1">
          <mxGeometry x="110" y="49.5" width="100" height="100" as="geometry">
            <mxPoint x="-11" y="123" as="sourcePoint" />
            <mxPoint x="203" y="123.5" as="targetPoint" />
          </mxGeometry>
        </mxCell>
        <mxCell id="1cmuNa6uKXrp0ozcfd2a-138" value="" style="html=1;points=[[0,0,0,0,5],[0,1,0,0,-5],[1,0,0,0,5],[1,1,0,0,-5]];perimeter=orthogonalPerimeter;outlineConnect=0;targetShapes=umlLifeline;portConstraint=eastwest;newEdgeStyle={&quot;curved&quot;:0,&quot;rounded&quot;:0};" vertex="1" parent="1">
          <mxGeometry x="210" y="150" width="10" height="40" as="geometry" />
        </mxCell>
        <mxCell id="1cmuNa6uKXrp0ozcfd2a-139" value="attachAll()" style="html=1;align=left;spacingLeft=2;endArrow=block;rounded=0;edgeStyle=orthogonalEdgeStyle;curved=0;rounded=0;" edge="1" target="1cmuNa6uKXrp0ozcfd2a-138" parent="1">
          <mxGeometry relative="1" as="geometry">
            <mxPoint x="215" y="130" as="sourcePoint" />
            <Array as="points">
              <mxPoint x="245" y="160" />
            </Array>
          </mxGeometry>
        </mxCell>
        <mxCell id="1cmuNa6uKXrp0ozcfd2a-140" value="" style="html=1;points=[[0,0,0,0,5],[0,1,0,0,-5],[1,0,0,0,5],[1,1,0,0,-5]];perimeter=orthogonalPerimeter;outlineConnect=0;targetShapes=umlLifeline;portConstraint=eastwest;newEdgeStyle={&quot;curved&quot;:0,&quot;rounded&quot;:0};" vertex="1" parent="1">
          <mxGeometry x="205" y="980" width="10" height="40" as="geometry" />
        </mxCell>
        <mxCell id="1cmuNa6uKXrp0ozcfd2a-141" value="detachAll()" style="html=1;align=left;spacingLeft=2;endArrow=block;rounded=0;edgeStyle=orthogonalEdgeStyle;curved=0;rounded=0;" edge="1" target="1cmuNa6uKXrp0ozcfd2a-140" parent="1">
          <mxGeometry relative="1" as="geometry">
            <mxPoint x="210" y="960" as="sourcePoint" />
            <Array as="points">
              <mxPoint x="240" y="990" />
            </Array>
          </mxGeometry>
        </mxCell>
        <mxCell id="1cmuNa6uKXrp0ozcfd2a-142" value="removeDataChangeObserver()" style="edgeStyle=none;verticalLabelPosition=top;verticalAlign=bottom;" edge="1" parent="1">
          <mxGeometry x="220" y="92" width="100" height="100" as="geometry">
            <mxPoint x="210" y="1010" as="sourcePoint" />
            <mxPoint x="446" y="1010.5" as="targetPoint" />
          </mxGeometry>
        </mxCell>
        <mxCell id="1cmuNa6uKXrp0ozcfd2a-143" value="" style="ellipse;html=1;shape=startState;fillColor=#000000;strokeColor=#ff0000;" vertex="1" parent="1">
          <mxGeometry x="1000" y="50" width="30" height="30" as="geometry" />
        </mxCell>
        <mxCell id="1cmuNa6uKXrp0ozcfd2a-144" value="" style="edgeStyle=orthogonalEdgeStyle;html=1;verticalAlign=bottom;endArrow=open;endSize=8;strokeColor=#ff0000;rounded=0;" edge="1" source="1cmuNa6uKXrp0ozcfd2a-143" parent="1">
          <mxGeometry relative="1" as="geometry">
            <mxPoint x="1015" y="110" as="targetPoint" />
          </mxGeometry>
        </mxCell>
        <mxCell id="1cmuNa6uKXrp0ozcfd2a-159" value="" style="edgeStyle=orthogonalEdgeStyle;rounded=0;orthogonalLoop=1;jettySize=auto;html=1;" edge="1" parent="1" source="1cmuNa6uKXrp0ozcfd2a-146" target="1cmuNa6uKXrp0ozcfd2a-158">
          <mxGeometry relative="1" as="geometry" />
        </mxCell>
        <mxCell id="1cmuNa6uKXrp0ozcfd2a-146" value="&lt;div&gt;observers.keySet()&lt;/div&gt;&lt;div&gt;包含半屏pageType&lt;/div&gt;" style="rhombus;whiteSpace=wrap;html=1;fontColor=#000000;fillColor=#ffffc0;strokeColor=#ff0000;" vertex="1" parent="1">
          <mxGeometry x="920" y="110" width="190" height="100" as="geometry" />
        </mxCell>
        <mxCell id="1cmuNa6uKXrp0ozcfd2a-147" value="&lt;div&gt;yes&lt;/div&gt;" style="edgeStyle=orthogonalEdgeStyle;html=1;align=left;verticalAlign=bottom;endArrow=open;endSize=8;strokeColor=#ff0000;rounded=0;" edge="1" source="1cmuNa6uKXrp0ozcfd2a-146" parent="1">
          <mxGeometry x="-1" relative="1" as="geometry">
            <mxPoint x="1160" y="160" as="targetPoint" />
          </mxGeometry>
        </mxCell>
        <mxCell id="1cmuNa6uKXrp0ozcfd2a-158" value="&lt;div&gt;observers.keySet()&lt;/div&gt;&lt;div&gt;包含半屏pageType&lt;/div&gt;" style="rhombus;whiteSpace=wrap;html=1;fontColor=#000000;fillColor=#ffffc0;strokeColor=#ff0000;" vertex="1" parent="1">
          <mxGeometry x="920" y="290" width="190" height="100" as="geometry" />
        </mxCell>
      </root>
    </mxGraphModel>
  </diagram>
</mxfile>
